 http://img12.imageshack.us/img12/3333/mv5bmty2mtm0oti5mf5bml5.jpg
Complete name : HUMANS VERSUS ZOMBIES (2011) DVDRip [MKV AC3][RoB]PR3DATOR RG
Format : Matroska
Format version : Version 2
File size : 823 MiB
Duration : 1h 28mn
Overall bit rate : 1 294 Kbps
Writing application : Lavf51.12.1
Writing library : Lavf51.12.1

Video
ID : 1
Format : AVC
Format/Info : Advanced Video Codec
Format profile : Baseline@L2.1
Format settings, CABAC : No
Format settings, ReFrames : 5 frames
Format settings, GOP : M=1, N=12
Codec ID : V_MPEG4/ISO/AVC
Duration : 1h 28mn
Bit rate : 1 077 Kbps
Width : 624 pixels
Height : 256 pixels
Display aspect ratio : 2.40:1
Frame rate mode : Variable
Frame rate : 25.000 fps
Color space : YUV
Chroma subsampling : 4:2:0
Bit depth : 8 bits
Scan type : Progressive
Bits/(Pixel*Frame) : 0.270
Stream size : 684 MiB (83%)
Language : English

Audio
ID : 2
Format : AC-3
Format/Info : Audio Coding 3
Mode extension : CM (complete main)
Codec ID : A_AC3
Duration : 1h 28mn
Bit rate mode : Constant
Bit rate : 192 Kbps
Channel(s) : 2 channels
Channel positions : Front: L R
Sampling rate : 44.1 KHz
Bit depth : 16 bits
Compression mode : Lossy
Stream size : 122 MiB (15%)
Language : English